<svg xmlns="http://www.w3.org/2000/svg" xmlns:xlink="http://www.w3.org/1999/xlink" width="436" zoomAndPan="magnify" viewBox="0 0 327 368.250002" height="491" preserveAspectRatio="xMidYMid meet" version="1.0"><defs><g/><clipPath id="fc978bb0e8"><path d="M 9 0 L 272.605469 0 L 272.605469 354 L 9 354 Z M 9 0 " clip-rule="nonzero"/></clipPath><clipPath id="f9865fb5c8"><path d="M 214.894531 234 L 238 234 L 238 261.542969 L 214.894531 261.542969 Z M 214.894531 234 " clip-rule="nonzero"/></clipPath><clipPath id="2862773a14"><path d="M 237 231.183594 L 247.148438 231.183594 L 247.148438 245 L 237 245 Z M 237 231.183594 " clip-rule="nonzero"/></clipPath></defs><g clip-path="url(#fc978bb0e8)"><path fill="#2e7d32" d="M 200.667969 314.832031 C 156.421875 351.902344 90.46875 346.0625 53.460938 301.757812 C 16.390625 257.511719 22.230469 191.558594 66.539062 154.554688 C 81.773438 141.792969 99.609375 134.113281 117.890625 131.320312 C 94.976562 132.71875 72.25 141.160156 53.335938 157.027344 C 6.300781 196.382812 0.078125 266.464844 39.496094 313.5 C 78.855469 360.535156 148.933594 366.757812 195.96875 327.339844 C 214.949219 311.46875 227.261719 290.585938 232.660156 268.304688 C 226.691406 285.824219 216.027344 302.011719 200.792969 314.832031 Z M 77.519531 155.824219 C 159.785156 232.503906 183.910156 157.410156 272.332031 179.691406 C 168.863281 85.617188 102.148438 112.722656 102.148438 112.722656 C 136.046875 51.53125 63.109375 0.875 63.109375 0.875 C 83.234375 41.5 41.402344 62.890625 87.867188 103.707031 C 102.53125 74.824219 85.710938 38.074219 85.710938 38.074219 C 99.167969 58.003906 104.5 83.710938 94.34375 103.261719 C 87.105469 117.164062 76.632812 120.910156 64.824219 129.289062 C 4.710938 171.882812 9.917969 225.140625 9.917969 225.140625 C 30.675781 125.988281 128.875 100.660156 203.523438 152.269531 C 141.886719 124.273438 77.457031 155.757812 77.457031 155.757812 Z M 77.519531 155.824219 " fill-opacity="1" fill-rule="evenodd"/></g><g fill="#2e7d32" fill-opacity="1"><g transform="translate(47.001251, 293.679424)"><g><path d="M 25.53125 -33.34375 L 34.90625 -33.34375 L 34.90625 0 L 25.53125 0 L 25.53125 -3.0625 L 25.40625 -3.0625 C 24.40625 -1.75 23.078125 -0.726562 21.421875 0 C 19.773438 0.726562 18.09375 1.09375 16.375 1.09375 C 11.976562 1.09375 8.316406 -0.640625 5.390625 -4.109375 C 2.472656 -7.578125 1.015625 -11.820312 1.015625 -16.84375 C 1.015625 -19.96875 1.648438 -22.863281 2.921875 -25.53125 C 4.191406 -28.207031 5.988281 -30.359375 8.3125 -31.984375 C 10.644531 -33.617188 13.285156 -34.4375 16.234375 -34.4375 C 17.953125 -34.4375 19.632812 -34.070312 21.28125 -33.34375 C 22.9375 -32.625 24.351562 -31.582031 25.53125 -30.21875 Z M 18.46875 -26.015625 C 16.34375 -26.015625 14.507812 -25.097656 12.96875 -23.265625 C 11.425781 -21.429688 10.65625 -19.242188 10.65625 -16.703125 C 10.65625 -14.171875 11.425781 -11.972656 12.96875 -10.109375 C 14.507812 -8.253906 16.367188 -7.328125 18.546875 -7.328125 C 20.765625 -7.328125 22.640625 -8.242188 24.171875 -10.078125 C 25.710938 -11.921875 26.484375 -14.128906 26.484375 -16.703125 C 26.484375 -19.285156 25.703125 -21.484375 24.140625 -23.296875 C 22.578125 -25.109375 20.6875 -26.015625 18.46875 -26.015625 Z M 18.46875 -26.015625 "/></g></g></g><g fill="#2e7d32" fill-opacity="1"><g transform="translate(85.375078, 293.679424)"><g><path d="M 24.109375 -24.796875 C 22.929688 -25.609375 21.617188 -26.015625 20.171875 -26.015625 C 17.722656 -26.015625 15.898438 -25.1875 14.703125 -23.53125 C 13.503906 -21.882812 12.90625 -19.15625 12.90625 -15.34375 L 12.90625 0 L 3.390625 0 L 3.390625 -33.34375 L 12.90625 -33.34375 L 12.90625 -29.890625 L 13.046875 -29.890625 C 13.992188 -31.335938 15.164062 -32.457031 16.5625 -33.25 C 17.96875 -34.039062 19.554688 -34.4375 21.328125 -34.4375 C 22.640625 -34.394531 23.953125 -34.125 25.265625 -33.625 Z M 24.109375 -24.796875 "/></g></g></g><g fill="#2e7d32" fill-opacity="1"><g transform="translate(110.301077, 293.679424)"><g><path d="M 12.90625 -57.59375 L 12.90625 -30.296875 C 14.082031 -31.609375 15.484375 -32.625 17.109375 -33.34375 C 18.742188 -34.070312 20.421875 -34.4375 22.140625 -34.4375 C 24.953125 -34.4375 27.535156 -33.644531 29.890625 -32.0625 C 32.242188 -30.476562 34.078125 -28.316406 35.390625 -25.578125 C 36.703125 -22.835938 37.359375 -19.925781 37.359375 -16.84375 C 37.359375 -13.539062 36.703125 -10.492188 35.390625 -7.703125 C 34.078125 -4.921875 32.226562 -2.757812 29.84375 -1.21875 C 27.46875 0.320312 24.832031 1.09375 21.9375 1.09375 C 20.21875 1.09375 18.539062 0.726562 16.90625 0 C 15.28125 -0.726562 13.992188 -1.769531 13.046875 -3.125 L 12.90625 -3.125 L 12.90625 0 L 3.390625 0 L 3.390625 -57.59375 Z M 19.765625 -26.015625 C 17.640625 -26.015625 15.804688 -25.097656 14.265625 -23.265625 C 12.722656 -21.429688 11.953125 -19.242188 11.953125 -16.703125 C 11.953125 -14.128906 12.722656 -11.921875 14.265625 -10.078125 C 15.804688 -8.242188 17.660156 -7.328125 19.828125 -7.328125 C 22.140625 -7.328125 24.03125 -8.28125 25.5 -10.1875 C 26.976562 -12.09375 27.71875 -14.265625 27.71875 -16.703125 C 27.71875 -19.148438 26.96875 -21.3125 25.46875 -23.1875 C 23.976562 -25.070312 22.078125 -26.015625 19.765625 -26.015625 Z M 19.765625 -26.015625 "/></g></g></g><g fill="#2e7d32" fill-opacity="1"><g transform="translate(148.674904, 293.679424)"><g><path d="M 1.09375 -16.640625 C 1.09375 -21.890625 2.742188 -26.164062 6.046875 -29.46875 C 9.347656 -32.78125 13.535156 -34.4375 18.609375 -34.4375 C 23.773438 -34.4375 27.988281 -32.757812 31.25 -29.40625 C 34.507812 -26.0625 36.140625 -21.804688 36.140625 -16.640625 C 36.140625 -11.429688 34.492188 -7.171875 31.203125 -3.859375 C 27.921875 -0.554688 23.722656 1.09375 18.609375 1.09375 C 13.492188 1.09375 9.296875 -0.566406 6.015625 -3.890625 C 2.734375 -7.222656 1.09375 -11.472656 1.09375 -16.640625 Z M 18.546875 -26.015625 C 16.410156 -26.015625 14.570312 -25.097656 13.03125 -23.265625 C 11.5 -21.429688 10.734375 -19.222656 10.734375 -16.640625 C 10.734375 -14.148438 11.5 -11.972656 13.03125 -10.109375 C 14.570312 -8.253906 16.429688 -7.328125 18.609375 -7.328125 C 20.867188 -7.328125 22.742188 -8.253906 24.234375 -10.109375 C 25.734375 -11.972656 26.484375 -14.148438 26.484375 -16.640625 C 26.484375 -19.085938 25.75 -21.257812 24.28125 -23.15625 C 22.8125 -25.0625 20.898438 -26.015625 18.546875 -26.015625 Z M 18.546875 -26.015625 "/></g></g></g><g fill="#2e7d32" fill-opacity="1"><g transform="translate(185.894115, 293.679424)"><g><path d="M 33.28125 0 L 23.765625 0 L 23.765625 -19.296875 C 23.765625 -21.734375 23.398438 -23.597656 22.671875 -24.890625 C 21.953125 -26.179688 20.597656 -26.828125 18.609375 -26.828125 C 16.796875 -26.828125 15.390625 -26.113281 14.390625 -24.6875 C 13.398438 -23.257812 12.90625 -20.78125 12.90625 -17.25 L 12.90625 0 L 3.390625 0 L 3.390625 -33.34375 L 12.90625 -33.34375 L 12.90625 -30.296875 L 13.046875 -30.296875 C 14.035156 -31.785156 15.300781 -32.847656 16.84375 -33.484375 C 18.382812 -34.117188 20.015625 -34.4375 21.734375 -34.4375 C 25.585938 -34.4375 28.472656 -33.269531 30.390625 -30.9375 C 32.316406 -28.601562 33.28125 -25.171875 33.28125 -20.640625 Z M 33.28125 0 "/></g></g></g><g fill="#2e7d32" fill-opacity="1"><g transform="translate(222.569982, 293.679424)"><g/></g></g><g fill="#2e7d32" fill-opacity="1"><g transform="translate(242.198364, 293.679424)"><g><path d="M 14.0625 -44.625 L 14.0625 -33.34375 L 19.90625 -33.34375 L 19.90625 -25.328125 L 14.0625 -25.328125 L 14.0625 0 L 4.546875 0 L 4.546875 -25.328125 L 1.296875 -25.328125 L 1.296875 -33.34375 L 4.546875 -33.34375 L 4.546875 -44.625 Z M 14.0625 -44.625 "/></g></g></g><g fill="#2e7d32" fill-opacity="1"><g transform="translate(260.80797, 293.679424)"><g><path d="M 1.09375 -16.640625 C 1.09375 -21.890625 2.742188 -26.164062 6.046875 -29.46875 C 9.347656 -32.78125 13.535156 -34.4375 18.609375 -34.4375 C 23.773438 -34.4375 27.988281 -32.757812 31.25 -29.40625 C 34.507812 -26.0625 36.140625 -21.804688 36.140625 -16.640625 C 36.140625 -11.429688 34.492188 -7.171875 31.203125 -3.859375 C 27.921875 -0.554688 23.722656 1.09375 18.609375 1.09375 C 13.492188 1.09375 9.296875 -0.566406 6.015625 -3.890625 C 2.734375 -7.222656 1.09375 -11.472656 1.09375 -16.640625 Z M 18.546875 -26.015625 C 16.410156 -26.015625 14.570312 -25.097656 13.03125 -23.265625 C 11.5 -21.429688 10.734375 -19.222656 10.734375 -16.640625 C 10.734375 -14.148438 11.5 -11.972656 13.03125 -10.109375 C 14.570312 -8.253906 16.429688 -7.328125 18.609375 -7.328125 C 20.867188 -7.328125 22.742188 -8.253906 24.234375 -10.109375 C 25.734375 -11.972656 26.484375 -14.148438 26.484375 -16.640625 C 26.484375 -19.085938 25.75 -21.257812 24.28125 -23.15625 C 22.8125 -25.0625 20.898438 -26.015625 18.546875 -26.015625 Z M 18.546875 -26.015625 "/></g></g></g><g fill="#2e7d32" fill-opacity="1"><g transform="translate(298.02718, 293.679424)"><g><path d="M 24.109375 -24.796875 C 22.929688 -25.609375 21.617188 -26.015625 20.171875 -26.015625 C 17.722656 -26.015625 15.898438 -25.1875 14.703125 -23.53125 C 13.503906 -21.882812 12.90625 -19.15625 12.90625 -15.34375 L 12.90625 0 L 3.390625 0 L 3.390625 -33.34375 L 12.90625 -33.34375 L 12.90625 -29.890625 L 13.046875 -29.890625 C 13.992188 -31.335938 15.164062 -32.457031 16.5625 -33.25 C 17.96875 -34.039062 19.554688 -34.4375 21.328125 -34.4375 C 22.640625 -34.394531 23.953125 -34.125 25.265625 -33.625 Z M 24.109375 -24.796875 "/></g></g></g><g clip-path="url(#f9865fb5c8)"><path fill="#55a935" d="M 220.78125 239.019531 C 221.4375 239.039062 222.097656 239.105469 222.75 239.191406 C 223.078125 239.238281 223.402344 239.285156 223.730469 239.34375 C 224.054688 239.402344 224.378906 239.46875 224.703125 239.542969 C 225.347656 239.6875 225.988281 239.863281 226.621094 240.066406 C 226.9375 240.167969 227.253906 240.28125 227.5625 240.402344 C 227.875 240.519531 228.183594 240.652344 228.488281 240.789062 C 228.796875 240.929688 229.097656 241.074219 229.394531 241.238281 C 229.6875 241.398438 229.980469 241.566406 230.265625 241.746094 C 230.550781 241.929688 230.832031 242.121094 231.105469 242.328125 C 231.375 242.53125 231.640625 242.75 231.894531 242.980469 C 232.148438 243.214844 232.390625 243.457031 232.621094 243.714844 C 232.851562 243.96875 233.070312 244.242188 233.273438 244.519531 C 233.476562 244.804688 233.664062 245.097656 233.835938 245.402344 C 234.003906 245.707031 234.15625 246.023438 234.292969 246.34375 L 234.425781 246.660156 L 234.191406 246.925781 L 234.109375 247.019531 L 234.035156 247.101562 C 233.984375 247.15625 233.933594 247.207031 233.882812 247.257812 C 233.78125 247.363281 233.679688 247.464844 233.574219 247.5625 C 233.367188 247.761719 233.152344 247.953125 232.929688 248.132812 C 232.484375 248.5 232.011719 248.832031 231.515625 249.132812 C 231.265625 249.28125 231.007812 249.421875 230.746094 249.550781 C 230.484375 249.679688 230.210938 249.796875 229.933594 249.898438 L 229.726562 249.976562 C 229.65625 250 229.585938 250.019531 229.515625 250.042969 C 229.375 250.089844 229.226562 250.128906 229.085938 250.167969 C 228.792969 250.238281 228.5 250.304688 228.203125 250.339844 C 227.902344 250.386719 227.601562 250.402344 227.296875 250.410156 C 227.21875 250.410156 227.144531 250.410156 227.066406 250.410156 C 226.992188 250.40625 226.914062 250.40625 226.839844 250.402344 C 226.6875 250.390625 226.535156 250.382812 226.382812 250.363281 C 225.777344 250.292969 225.183594 250.136719 224.617188 249.921875 C 224.050781 249.703125 223.515625 249.417969 223.019531 249.089844 C 222.523438 248.761719 222.0625 248.390625 221.632812 247.996094 C 221.199219 247.597656 220.8125 247.167969 220.4375 246.730469 C 220.257812 246.507812 220.070312 246.285156 219.902344 246.054688 C 219.816406 245.941406 219.726562 245.828125 219.644531 245.710938 L 219.402344 245.359375 C 219.359375 245.300781 219.316406 245.246094 219.277344 245.1875 L 218.929688 244.648438 C 218.78125 244.410156 218.636719 244.167969 218.492188 243.921875 C 218.351562 243.675781 218.210938 243.433594 218.078125 243.183594 C 217.949219 242.933594 217.8125 242.6875 217.6875 242.4375 C 217.5625 242.183594 217.4375 241.933594 217.316406 241.679688 C 217.199219 241.425781 217.082031 241.171875 216.964844 240.917969 L 216.632812 240.148438 L 216.316406 239.375 C 216.210938 239.117188 216.117188 238.855469 216.019531 238.59375 C 215.96875 238.464844 215.917969 238.335938 215.871094 238.203125 L 215.730469 237.808594 C 215.539062 237.289062 215.371094 236.761719 215.191406 236.234375 L 214.890625 235.34375 L 215.804688 235.117188 L 215.992188 235.070312 L 216.167969 235.03125 C 216.28125 235.003906 216.398438 234.980469 216.515625 234.957031 C 216.746094 234.910156 216.976562 234.867188 217.207031 234.828125 C 217.667969 234.75 218.132812 234.6875 218.597656 234.632812 C 219.523438 234.527344 220.457031 234.46875 221.394531 234.460938 C 222.332031 234.453125 223.269531 234.503906 224.207031 234.613281 C 224.675781 234.667969 225.140625 234.742188 225.605469 234.828125 C 226.070312 234.917969 226.535156 235.023438 226.992188 235.148438 C 227.449219 235.277344 227.902344 235.425781 228.351562 235.59375 C 228.796875 235.761719 229.238281 235.949219 229.667969 236.164062 C 230.527344 236.589844 231.351562 237.101562 232.097656 237.710938 C 232.851562 238.3125 233.523438 239.015625 234.113281 239.773438 C 234.191406 239.867188 234.257812 239.964844 234.328125 240.0625 C 234.398438 240.160156 234.472656 240.257812 234.535156 240.355469 L 234.734375 240.65625 L 234.832031 240.808594 L 234.921875 240.960938 L 235.105469 241.269531 C 235.164062 241.371094 235.21875 241.480469 235.273438 241.582031 C 235.332031 241.691406 235.390625 241.792969 235.441406 241.898438 L 235.59375 242.222656 L 235.671875 242.382812 C 235.695312 242.4375 235.71875 242.492188 235.742188 242.546875 L 235.882812 242.871094 C 235.929688 242.980469 235.972656 243.089844 236.011719 243.203125 L 236.136719 243.535156 C 236.21875 243.757812 236.289062 243.980469 236.363281 244.203125 L 236.554688 244.882812 L 236.722656 245.5625 L 236.863281 246.25 L 236.867188 246.273438 L 236.871094 246.28125 C 236.855469 246.222656 236.867188 246.269531 236.863281 246.261719 L 236.875 246.308594 L 236.894531 246.394531 L 236.933594 246.570312 C 236.957031 246.683594 236.980469 246.796875 237 246.914062 C 237.042969 247.140625 237.082031 247.371094 237.117188 247.597656 C 237.257812 248.515625 237.351562 249.433594 237.390625 250.359375 C 237.425781 251.28125 237.410156 252.207031 237.320312 253.132812 C 237.226562 254.054688 237.066406 254.972656 236.800781 255.867188 C 236.53125 256.757812 236.160156 257.625 235.648438 258.40625 C 235.394531 258.796875 235.109375 259.167969 234.785156 259.503906 C 234.464844 259.839844 234.113281 260.144531 233.738281 260.410156 C 232.980469 260.9375 232.128906 261.308594 231.253906 261.535156 L 231.566406 261.40625 C 231.671875 261.367188 231.773438 261.316406 231.878906 261.269531 C 231.980469 261.226562 232.082031 261.171875 232.179688 261.121094 L 232.332031 261.046875 L 232.476562 260.960938 C 232.867188 260.738281 233.234375 260.484375 233.570312 260.195312 C 234.25 259.625 234.804688 258.921875 235.222656 258.152344 C 235.640625 257.378906 235.933594 256.546875 236.125 255.691406 C 236.320312 254.832031 236.417969 253.953125 236.449219 253.074219 C 236.480469 252.191406 236.449219 251.308594 236.363281 250.425781 C 236.277344 249.546875 236.148438 248.667969 235.96875 247.804688 C 235.925781 247.589844 235.875 247.375 235.824219 247.160156 C 235.800781 247.054688 235.773438 246.945312 235.75 246.839844 L 235.660156 246.5 L 235.5 245.863281 L 235.320312 245.234375 L 235.113281 244.617188 C 235.035156 244.414062 234.960938 244.210938 234.882812 244.011719 L 234.753906 243.710938 C 234.714844 243.613281 234.675781 243.511719 234.625 243.414062 L 234.488281 243.125 C 234.464844 243.074219 234.445312 243.027344 234.417969 242.976562 L 234.34375 242.835938 C 233.953125 242.074219 233.488281 241.351562 232.949219 240.695312 C 232.410156 240.042969 231.808594 239.445312 231.132812 238.933594 C 231.046875 238.871094 230.96875 238.804688 230.878906 238.746094 L 230.621094 238.5625 C 230.535156 238.503906 230.445312 238.449219 230.355469 238.390625 C 230.265625 238.332031 230.179688 238.277344 230.085938 238.222656 L 229.8125 238.0625 L 229.535156 237.910156 C 229.488281 237.882812 229.441406 237.859375 229.394531 237.835938 L 229.253906 237.765625 C 229.15625 237.71875 229.0625 237.667969 228.964844 237.625 C 228.582031 237.445312 228.1875 237.285156 227.785156 237.140625 C 227.382812 237 226.972656 236.875 226.558594 236.769531 C 226.140625 236.664062 225.722656 236.570312 225.296875 236.492188 C 224.875 236.417969 224.445312 236.359375 224.015625 236.3125 C 223.152344 236.222656 222.285156 236.1875 221.410156 236.199219 C 220.539062 236.207031 219.667969 236.265625 218.796875 236.371094 C 218.363281 236.421875 217.929688 236.484375 217.503906 236.558594 C 217.289062 236.59375 217.074219 236.636719 216.863281 236.675781 C 216.753906 236.699219 216.652344 236.71875 216.546875 236.742188 L 216.390625 236.777344 L 216.25 236.8125 L 216.859375 235.695312 C 217.03125 236.207031 217.195312 236.71875 217.378906 237.226562 L 217.511719 237.605469 C 217.554688 237.734375 217.605469 237.859375 217.652344 237.984375 C 217.746094 238.234375 217.835938 238.488281 217.9375 238.738281 L 218.234375 239.484375 L 218.546875 240.222656 C 218.652344 240.46875 218.765625 240.710938 218.875 240.953125 C 218.984375 241.195312 219.101562 241.433594 219.214844 241.675781 C 219.332031 241.914062 219.457031 242.148438 219.578125 242.386719 C 219.699219 242.621094 219.832031 242.851562 219.957031 243.082031 C 220.089844 243.3125 220.222656 243.539062 220.355469 243.765625 L 220.566406 244.097656 L 220.671875 244.265625 C 220.707031 244.320312 220.742188 244.375 220.777344 244.429688 L 220.996094 244.753906 C 221.070312 244.863281 221.148438 244.96875 221.226562 245.074219 C 221.375 245.289062 221.539062 245.488281 221.695312 245.695312 C 222.023438 246.09375 222.363281 246.480469 222.730469 246.832031 C 223.097656 247.183594 223.484375 247.511719 223.890625 247.796875 C 224.300781 248.082031 224.730469 248.328125 225.179688 248.515625 C 225.628906 248.703125 226.097656 248.835938 226.578125 248.910156 C 226.695312 248.933594 226.816406 248.9375 226.9375 248.953125 C 226.996094 248.960938 227.058594 248.960938 227.117188 248.964844 C 227.179688 248.96875 227.238281 248.972656 227.300781 248.972656 C 227.542969 248.976562 227.789062 248.972656 228.03125 248.941406 C 228.277344 248.921875 228.519531 248.875 228.761719 248.824219 C 228.882812 248.796875 229.003906 248.769531 229.125 248.734375 C 229.183594 248.71875 229.242188 248.703125 229.304688 248.683594 L 229.484375 248.625 C 229.542969 248.605469 229.601562 248.585938 229.660156 248.5625 C 229.71875 248.542969 229.78125 248.523438 229.839844 248.5 C 229.957031 248.449219 230.074219 248.40625 230.191406 248.351562 C 230.421875 248.253906 230.652344 248.140625 230.878906 248.015625 C 231.328125 247.773438 231.761719 247.492188 232.179688 247.179688 C 232.386719 247.023438 232.589844 246.859375 232.785156 246.691406 C 232.882812 246.605469 232.980469 246.523438 233.074219 246.433594 C 233.121094 246.390625 233.167969 246.347656 233.210938 246.300781 L 233.335938 246.175781 L 233.234375 246.757812 C 232.820312 245.601562 232.128906 244.546875 231.253906 243.648438 C 231.03125 243.425781 230.800781 243.210938 230.5625 243.003906 C 230.320312 242.796875 230.070312 242.601562 229.816406 242.414062 C 229.558594 242.226562 229.292969 242.050781 229.019531 241.878906 C 228.75 241.707031 228.472656 241.546875 228.1875 241.394531 C 227.625 241.085938 227.039062 240.8125 226.4375 240.566406 C 225.839844 240.316406 225.226562 240.097656 224.605469 239.902344 C 224.292969 239.804688 223.980469 239.710938 223.664062 239.628906 C 223.351562 239.542969 223.03125 239.460938 222.714844 239.386719 C 222.394531 239.3125 222.074219 239.242188 221.753906 239.183594 C 221.429688 239.125 221.109375 239.0625 220.78125 239.019531 " fill-opacity="1" fill-rule="nonzero"/></g><g clip-path="url(#2862773a14)"><path fill="#9cd421" d="M 243.941406 235.5 C 243.785156 235.640625 243.636719 235.789062 243.492188 235.933594 C 243.347656 236.082031 243.199219 236.230469 243.0625 236.382812 L 242.851562 236.613281 L 242.648438 236.84375 L 242.449219 237.082031 L 242.253906 237.320312 C 242.125 237.480469 242 237.640625 241.878906 237.804688 C 241.816406 237.886719 241.761719 237.96875 241.699219 238.054688 C 241.640625 238.136719 241.582031 238.21875 241.527344 238.304688 C 241.410156 238.46875 241.304688 238.644531 241.199219 238.8125 L 241.046875 239.074219 C 240.996094 239.160156 240.949219 239.25 240.898438 239.335938 C 240.851562 239.425781 240.808594 239.515625 240.765625 239.601562 C 240.71875 239.691406 240.675781 239.78125 240.636719 239.871094 C 240.59375 239.960938 240.550781 240.050781 240.515625 240.140625 L 240.40625 240.417969 C 240.367188 240.507812 240.339844 240.601562 240.308594 240.691406 C 240.292969 240.738281 240.273438 240.785156 240.261719 240.832031 L 240.222656 240.96875 C 240.164062 241.15625 240.125 241.34375 240.082031 241.527344 C 240.050781 241.71875 240.011719 241.902344 240 242.089844 C 239.988281 242.183594 239.976562 242.277344 239.976562 242.371094 C 239.976562 242.464844 239.96875 242.558594 239.96875 242.648438 L 239.980469 242.929688 L 239.980469 242.996094 C 239.984375 243.019531 239.984375 243.042969 239.988281 243.066406 L 240.003906 243.203125 C 240.015625 243.386719 240.0625 243.566406 240.09375 243.746094 L 239.636719 243.234375 L 239.734375 243.253906 L 239.84375 243.273438 C 239.921875 243.289062 240 243.300781 240.074219 243.3125 C 240.230469 243.335938 240.386719 243.351562 240.542969 243.363281 C 240.855469 243.386719 241.167969 243.390625 241.476562 243.367188 C 241.78125 243.34375 242.082031 243.304688 242.367188 243.230469 C 242.65625 243.160156 242.929688 243.0625 243.179688 242.9375 C 243.308594 242.875 243.429688 242.800781 243.546875 242.730469 C 243.660156 242.648438 243.773438 242.570312 243.878906 242.480469 C 244.085938 242.300781 244.273438 242.09375 244.433594 241.863281 C 244.597656 241.632812 244.738281 241.382812 244.851562 241.113281 C 244.96875 240.84375 245.0625 240.558594 245.140625 240.265625 C 245.214844 239.96875 245.265625 239.660156 245.3125 239.351562 C 245.328125 239.195312 245.351562 239.039062 245.359375 238.878906 C 245.367188 238.796875 245.375 238.71875 245.378906 238.640625 L 245.390625 238.398438 C 245.394531 238.320312 245.394531 238.238281 245.394531 238.15625 L 245.398438 237.914062 C 245.398438 237.75 245.394531 237.589844 245.390625 237.425781 C 245.378906 237.261719 245.378906 237.097656 245.367188 236.933594 C 245.355469 236.769531 245.347656 236.605469 245.332031 236.441406 C 245.316406 236.277344 245.300781 236.109375 245.28125 235.945312 L 245.222656 235.449219 L 245.148438 234.953125 L 245.070312 234.457031 C 245.046875 234.292969 245.011719 234.128906 244.984375 233.960938 C 244.953125 233.796875 244.921875 233.632812 244.886719 233.464844 C 244.824219 233.136719 244.746094 232.804688 244.675781 232.476562 L 245.730469 233.078125 L 245.6875 233.089844 L 245.632812 233.109375 L 245.523438 233.144531 C 245.449219 233.167969 245.371094 233.191406 245.296875 233.21875 C 245.148438 233.273438 244.996094 233.328125 244.847656 233.386719 C 244.546875 233.503906 244.246094 233.632812 243.953125 233.769531 C 243.363281 234.039062 242.789062 234.339844 242.242188 234.683594 C 241.691406 235.019531 241.167969 235.394531 240.679688 235.8125 C 240.433594 236.015625 240.199219 236.234375 239.976562 236.460938 C 239.753906 236.6875 239.542969 236.929688 239.347656 237.175781 C 239.148438 237.425781 238.960938 237.683594 238.796875 237.957031 C 238.632812 238.226562 238.480469 238.507812 238.347656 238.796875 C 238.214844 239.089844 238.109375 239.390625 238.011719 239.699219 C 237.964844 239.851562 237.929688 240.007812 237.886719 240.164062 C 237.855469 240.324219 237.820312 240.480469 237.796875 240.640625 C 237.765625 240.800781 237.753906 240.964844 237.734375 241.128906 C 237.722656 241.289062 237.703125 241.453125 237.703125 241.621094 C 237.683594 241.949219 237.699219 242.28125 237.71875 242.613281 C 237.734375 242.78125 237.746094 242.949219 237.769531 243.117188 L 237.800781 243.367188 L 237.84375 243.617188 C 237.855469 243.699219 237.871094 243.78125 237.886719 243.867188 L 237.9375 244.117188 C 237.96875 244.28125 238.011719 244.449219 238.046875 244.617188 C 237.976562 244.460938 237.898438 244.308594 237.832031 244.148438 C 237.769531 243.988281 237.699219 243.832031 237.644531 243.667969 L 237.554688 243.425781 C 237.527344 243.34375 237.503906 243.261719 237.476562 243.175781 C 237.421875 243.011719 237.382812 242.84375 237.339844 242.675781 C 237.257812 242.335938 237.191406 241.992188 237.152344 241.640625 C 237.128906 241.46875 237.125 241.289062 237.109375 241.113281 C 237.105469 240.9375 237.097656 240.757812 237.105469 240.582031 C 237.105469 240.402344 237.121094 240.226562 237.132812 240.046875 C 237.15625 239.867188 237.171875 239.6875 237.203125 239.511719 C 237.261719 239.15625 237.347656 238.804688 237.460938 238.460938 C 237.570312 238.117188 237.703125 237.777344 237.863281 237.449219 C 238.019531 237.121094 238.199219 236.804688 238.398438 236.5 C 238.789062 235.890625 239.257812 235.332031 239.769531 234.824219 C 240.28125 234.316406 240.839844 233.859375 241.421875 233.445312 C 242.007812 233.035156 242.621094 232.667969 243.253906 232.335938 C 243.570312 232.171875 243.890625 232.019531 244.21875 231.878906 C 244.382812 231.804688 244.546875 231.738281 244.714844 231.671875 C 244.800781 231.636719 244.886719 231.605469 244.972656 231.574219 L 245.101562 231.523438 L 245.167969 231.5 L 245.246094 231.476562 L 246.078125 231.195312 L 246.300781 232.078125 C 246.386719 232.421875 246.476562 232.765625 246.550781 233.109375 C 246.589844 233.285156 246.628906 233.457031 246.664062 233.632812 C 246.699219 233.804688 246.738281 233.980469 246.769531 234.15625 L 246.863281 234.679688 L 246.945312 235.210938 L 247.015625 235.746094 C 247.039062 235.925781 247.054688 236.105469 247.074219 236.285156 C 247.089844 236.464844 247.101562 236.644531 247.117188 236.824219 C 247.128906 237.007812 247.136719 237.1875 247.144531 237.371094 C 247.148438 237.554688 247.148438 237.734375 247.148438 237.917969 L 247.144531 238.195312 C 247.144531 238.289062 247.140625 238.378906 247.132812 238.472656 L 247.121094 238.75 C 247.113281 238.84375 247.105469 238.9375 247.097656 239.027344 C 247.082031 239.214844 247.054688 239.402344 247.03125 239.585938 C 246.976562 239.960938 246.90625 240.335938 246.800781 240.707031 C 246.695312 241.082031 246.566406 241.453125 246.398438 241.8125 C 246.230469 242.175781 246.023438 242.527344 245.773438 242.855469 C 245.523438 243.179688 245.230469 243.480469 244.902344 243.738281 C 244.578125 243.996094 244.21875 244.210938 243.84375 244.375 C 243.46875 244.539062 243.078125 244.648438 242.6875 244.722656 C 242.492188 244.761719 242.296875 244.789062 242.105469 244.804688 C 241.910156 244.824219 241.714844 244.832031 241.523438 244.832031 C 241.136719 244.835938 240.757812 244.804688 240.382812 244.75 C 240.195312 244.722656 240.011719 244.6875 239.824219 244.648438 C 239.730469 244.628906 239.640625 244.605469 239.546875 244.582031 L 239.40625 244.539062 L 239.335938 244.519531 L 239.253906 244.492188 L 238.832031 244.359375 L 238.796875 243.980469 C 238.773438 243.75 238.738281 243.519531 238.742188 243.285156 L 238.738281 243.113281 L 238.734375 243.027344 L 238.738281 242.9375 L 238.757812 242.59375 C 238.769531 242.480469 238.785156 242.367188 238.796875 242.253906 C 238.8125 242.136719 238.835938 242.027344 238.859375 241.914062 C 238.898438 241.691406 238.960938 241.472656 239.023438 241.257812 C 239.09375 241.042969 239.160156 240.828125 239.25 240.625 L 239.316406 240.472656 C 239.335938 240.421875 239.363281 240.371094 239.386719 240.320312 C 239.433594 240.222656 239.476562 240.121094 239.53125 240.023438 L 239.6875 239.734375 C 239.738281 239.636719 239.796875 239.546875 239.851562 239.453125 C 239.90625 239.355469 239.96875 239.265625 240.027344 239.175781 C 240.089844 239.085938 240.148438 238.996094 240.214844 238.910156 C 240.277344 238.820312 240.339844 238.734375 240.402344 238.648438 L 240.601562 238.394531 C 240.738281 238.226562 240.875 238.0625 241.019531 237.90625 C 241.09375 237.828125 241.164062 237.746094 241.238281 237.671875 C 241.3125 237.59375 241.382812 237.515625 241.460938 237.441406 C 241.609375 237.292969 241.765625 237.148438 241.921875 237.003906 L 242.15625 236.792969 L 242.398438 236.589844 C 242.5625 236.457031 242.726562 236.324219 242.894531 236.199219 C 243.066406 236.074219 243.234375 235.953125 243.410156 235.835938 C 243.582031 235.71875 243.757812 235.605469 243.941406 235.5 " fill-opacity="1" fill-rule="nonzero"/></g></svg>