<svg xmlns="http://www.w3.org/2000/svg" xmlns:xlink="http://www.w3.org/1999/xlink" width="1920" zoomAndPan="magnify" viewBox="0 0 1440 1439.999935" height="1920" preserveAspectRatio="xMidYMid meet" version="1.0"><defs><clipPath id="2044419fed"><path d="M 850 961 L 1149 961 L 1149 1296.285156 L 850 1296.285156 Z M 850 961 " clip-rule="nonzero"/></clipPath><clipPath id="46c8261f56"><path d="M 536.371094 886 L 727 886 L 727 1135 L 536.371094 1135 Z M 536.371094 886 " clip-rule="nonzero"/></clipPath><clipPath id="2524dafda5"><path d="M 942 608.535156 L 1059 608.535156 L 1059 702 L 942 702 Z M 942 608.535156 " clip-rule="nonzero"/></clipPath><clipPath id="9e560d1de3"><path d="M 773 608.535156 L 891 608.535156 L 891 702 L 773 702 Z M 773 608.535156 " clip-rule="nonzero"/></clipPath><clipPath id="67d81bbe3b"><path d="M 145 600 L 326 600 L 326 824.25 L 145 824.25 Z M 145 600 " clip-rule="nonzero"/></clipPath></defs><path fill="#ffd7d2" d="M 1120.070312 950.789062 L 1066.140625 929.542969 L 868.652344 913.269531 C 863.464844 905.15625 854.542969 900.519531 845.300781 900.519531 C 841.886719 900.519531 838.445312 901.148438 835.109375 902.464844 L 712.421875 950.789062 C 645.101562 969.554688 620.226562 1031.152344 617.542969 1115.140625 C 642.320312 1160.601562 702.628906 1200.875 778.546875 1217.085938 C 803.382812 1222.382812 827.761719 1224.648438 850.75 1224.1875 L 996.050781 1224.128906 C 1014.753906 1223.59375 1034.203125 1221.296875 1053.945312 1217.085938 C 1129.863281 1200.875 1190.171875 1160.601562 1214.949219 1115.140625 C 1233.042969 1023.613281 1193.160156 974.933594 1120.070312 950.789062 Z M 1120.070312 950.789062 " fill-opacity="1" fill-rule="nonzero"/><path fill="#349370" d="M 944.695312 958.242188 C 966.761719 971.867188 973.617188 1000.796875 960.011719 1022.886719 C 957.777344 1026.496094 955.132812 1029.710938 952.179688 1032.480469 C 931.152344 1015.015625 904.523438 999.863281 874.039062 988.71875 L 874.039062 988.703125 C 875.109375 983.484375 877.117188 978.355469 880.070312 973.566406 C 893.6875 951.476562 922.613281 944.621094 944.695312 958.242188 Z M 944.695312 958.242188 " fill-opacity="1" fill-rule="nonzero"/><g clip-path="url(#2044419fed)"><path fill="#3fa07f" d="M 1000.644531 967.640625 L 1046.539062 961.320312 L 1148.289062 1050.621094 L 996.050781 1224.128906 L 932.804688 1296.222656 L 850.75 1224.203125 L 850.75 1224.1875 C 893.335938 1223.363281 931.183594 1213.199219 958.511719 1195.75 L 958.527344 1195.75 C 977.167969 1183.839844 990.910156 1168.546875 997.933594 1150.5 C 999.433594 1146.671875 1000.613281 1142.722656 1001.484375 1138.652344 C 1005.171875 1121.371094 1002.722656 1103.691406 995.179688 1086.546875 C 991.9375 1079.183594 987.757812 1071.914062 982.707031 1064.839844 Z M 1000.644531 967.640625 " fill-opacity="1" fill-rule="nonzero"/></g><path fill="#4aaf8f" d="M 868.667969 913.253906 L 930.617188 812.792969 L 1080.9375 905.523438 L 1066.140625 929.542969 L 1046.539062 961.320312 L 1028.632812 990.371094 L 982.707031 1064.839844 C 981.683594 1063.386719 980.613281 1061.949219 979.507812 1060.511719 C 971.964844 1050.714844 962.78125 1041.300781 952.179688 1032.484375 C 955.132812 1029.710938 957.777344 1026.496094 960.011719 1022.886719 C 973.617188 1000.796875 966.761719 971.867188 944.695312 958.242188 C 922.613281 944.621094 893.6875 951.476562 880.070312 973.566406 C 877.117188 978.355469 875.109375 983.484375 874.039062 988.703125 L 874.039062 988.71875 C 860.097656 983.605469 845.363281 979.320312 829.964844 976.046875 L 862.59375 950.128906 C 873.457031 941.511719 876.304688 926.191406 869.265625 914.234375 C 869.066406 913.914062 868.882812 913.59375 868.652344 913.269531 Z M 868.667969 913.253906 " fill-opacity="1" fill-rule="nonzero"/><g clip-path="url(#46c8261f56)"><path fill="#f9b132" d="M 726.332031 926.695312 L 712.421875 950.789062 L 617.542969 1115.140625 L 606.507812 1134.257812 L 536.726562 1093.957031 L 656.535156 886.390625 Z M 726.332031 926.695312 " fill-opacity="1" fill-rule="nonzero"/></g><path fill="#8ecaef" d="M 1175.957031 886.390625 L 1295.765625 1093.957031 L 1225.984375 1134.257812 L 1214.949219 1115.140625 L 1120.070312 950.789062 L 1106.160156 926.695312 Z M 1175.957031 886.390625 " fill-opacity="1" fill-rule="nonzero"/><g clip-path="url(#2524dafda5)"><path fill="#c84242" d="M 1058.949219 608.535156 C 1058.949219 608.535156 1060.601562 665.019531 1029.121094 688.683594 C 997.644531 712.347656 942.324219 696.261719 942.324219 696.261719 Z M 1058.949219 608.535156 " fill-opacity="1" fill-rule="nonzero"/></g><g clip-path="url(#9e560d1de3)"><path fill="#c84242" d="M 773.542969 608.535156 L 890.167969 696.261719 C 890.167969 696.261719 834.847656 712.347656 803.371094 688.683594 C 771.890625 665.019531 773.542969 608.535156 773.542969 608.535156 Z M 773.542969 608.535156 " fill-opacity="1" fill-rule="nonzero"/></g><path fill="#f7b6ad" d="M 882.234375 1059.867188 C 880.839844 1062.945312 882.207031 1066.574219 885.285156 1067.96875 C 917.152344 1082.417969 944.386719 1088.554688 985.761719 1090.613281 C 985.867188 1090.617188 985.96875 1090.621094 986.070312 1090.621094 C 989.3125 1090.621094 992.019531 1088.074219 992.179688 1084.800781 C 992.347656 1081.425781 989.746094 1078.550781 986.371094 1078.382812 C 946.6875 1076.40625 920.660156 1070.5625 890.335938 1056.816406 C 887.261719 1055.417969 883.632812 1056.785156 882.234375 1059.867188 Z M 882.234375 1059.867188 " fill-opacity="1" fill-rule="nonzero"/><path fill="#f7b6ad" d="M 989.511719 1141.953125 C 942.953125 1138.550781 910.082031 1129.515625 872.273438 1109.730469 C 869.273438 1108.164062 865.578125 1109.320312 864.011719 1112.316406 C 862.445312 1115.3125 863.601562 1119.011719 866.597656 1120.578125 C 906.027344 1141.210938 940.238281 1150.628906 988.617188 1154.164062 C 988.769531 1154.175781 988.921875 1154.183594 989.070312 1154.183594 C 992.25 1154.183594 994.933594 1151.726562 995.167969 1148.507812 C 995.414062 1145.136719 992.882812 1142.199219 989.511719 1141.953125 Z M 989.511719 1141.953125 " fill-opacity="1" fill-rule="nonzero"/><path fill="#f7b6ad" d="M 945.84375 1188.4375 C 905.011719 1185.484375 881.605469 1176.511719 850.230469 1159.90625 C 847.242188 1158.320312 843.535156 1159.464844 841.957031 1162.453125 C 840.378906 1165.441406 841.515625 1169.148438 844.507812 1170.730469 C 877.394531 1188.132812 901.957031 1197.539062 944.960938 1200.652344 C 945.109375 1200.660156 945.257812 1200.667969 945.40625 1200.667969 C 948.585938 1200.667969 951.273438 1198.207031 951.507812 1194.984375 C 951.75 1191.613281 949.214844 1188.683594 945.84375 1188.4375 Z M 945.84375 1188.4375 " fill-opacity="1" fill-rule="nonzero"/><path fill="#349370" d="M 1041.8125 915.855469 C 1041.4375 914.273438 1040.453125 912.90625 1039.070312 912.054688 L 943.589844 853.152344 C 942.210938 852.300781 940.542969 852.03125 938.964844 852.40625 C 937.386719 852.78125 936.019531 853.769531 935.167969 855.152344 L 916.652344 885.199219 C 914.878906 888.078125 915.773438 891.847656 918.652344 893.625 C 921.53125 895.398438 925.300781 894.503906 927.074219 891.621094 L 942.378906 866.789062 L 1027.429688 919.261719 L 1012.117188 944.082031 C 1010.339844 946.957031 1011.234375 950.730469 1014.109375 952.507812 C 1015.109375 953.125 1016.222656 953.421875 1017.320312 953.421875 C 1019.371094 953.421875 1021.375 952.390625 1022.535156 950.515625 L 1041.066406 920.480469 C 1041.917969 919.097656 1042.1875 917.433594 1041.8125 915.855469 Z M 1041.8125 915.855469 " fill-opacity="1" fill-rule="nonzero"/><path fill="#349370" d="M 1105.910156 1050.058594 L 1039.894531 992.109375 C 1037.351562 989.878906 1033.484375 990.132812 1031.253906 992.671875 C 1029.023438 995.214844 1029.277344 999.082031 1031.816406 1001.3125 L 1093.230469 1055.222656 L 1073.980469 1077.148438 C 1071.75 1079.691406 1072 1083.558594 1074.539062 1085.789062 C 1075.703125 1086.808594 1077.144531 1087.3125 1078.578125 1087.3125 C 1080.277344 1087.3125 1081.96875 1086.609375 1083.179688 1085.230469 L 1106.472656 1058.703125 C 1107.542969 1057.484375 1108.085938 1055.886719 1107.980469 1054.265625 C 1107.878906 1052.644531 1107.128906 1051.132812 1105.910156 1050.058594 Z M 1105.910156 1050.058594 " fill-opacity="1" fill-rule="nonzero"/><path fill="#f7b6ad" d="M 873.875 782.746094 C 875.085938 782.765625 876.285156 782.773438 877.484375 782.773438 C 921.386719 782.773438 959.359375 771.015625 990.382812 747.804688 C 993.089844 745.78125 993.644531 741.941406 991.617188 739.234375 C 989.59375 736.523438 985.757812 735.972656 983.050781 737.996094 C 953.394531 760.183594 916.707031 771.125 874.050781 770.5 C 870.640625 770.425781 867.890625 773.152344 867.839844 776.53125 C 867.792969 779.917969 870.496094 782.695312 873.875 782.746094 Z M 873.875 782.746094 " fill-opacity="1" fill-rule="nonzero"/><path fill="#ce1e42" d="M 417.75 584.542969 C 412.980469 584.542969 409.117188 580.679688 409.117188 575.914062 L 409.117188 392.601562 C 409.117188 387.832031 412.980469 383.96875 417.75 383.96875 C 422.515625 383.96875 426.378906 387.832031 426.378906 392.601562 L 426.378906 575.914062 C 426.378906 580.679688 422.515625 584.542969 417.75 584.542969 Z M 417.75 584.542969 " fill-opacity="1" fill-rule="evenodd"/><path fill="#ce1e42" d="M 417.75 564.054688 C 393.371094 564.054688 373.542969 544.21875 373.542969 519.839844 C 373.542969 515.070312 377.40625 511.207031 382.171875 511.207031 C 386.941406 511.207031 390.804688 515.070312 390.804688 519.839844 C 390.804688 534.699219 402.894531 546.789062 417.75 546.789062 C 432.609375 546.789062 444.699219 534.699219 444.699219 519.839844 C 444.699219 504.980469 432.609375 492.886719 417.75 492.886719 C 393.375 492.886719 373.542969 473.050781 373.542969 448.671875 C 373.542969 424.289062 393.375 404.453125 417.75 404.453125 C 442.125 404.453125 461.960938 424.289062 461.960938 448.671875 C 461.960938 453.4375 458.09375 457.304688 453.328125 457.304688 C 448.5625 457.304688 444.695312 453.4375 444.695312 448.671875 C 444.695312 433.8125 432.609375 421.71875 417.75 421.71875 C 402.894531 421.71875 390.804688 433.808594 390.804688 448.671875 C 390.804688 463.53125 402.894531 475.621094 417.75 475.621094 C 442.128906 475.621094 461.960938 495.457031 461.960938 519.839844 C 461.960938 544.21875 442.128906 564.054688 417.75 564.054688 Z M 417.75 564.054688 " fill-opacity="1" fill-rule="evenodd"/><path fill="#e34a2f" d="M 488.789062 795.113281 C 488.074219 795.113281 487.359375 795.027344 486.65625 794.847656 L 333.8125 755.890625 L 250.289062 611.195312 C 284.261719 586.285156 287.285156 585.605469 289.785156 585.042969 C 323.214844 577.480469 468.402344 617.769531 511.699219 646.640625 C 517.421875 650.453125 521.59375 654.957031 524.453125 659.792969 L 619.257812 592.113281 C 634.996094 580.875 652.339844 578.28125 666.84375 584.992188 C 679.722656 590.949219 688.472656 603.5 689.679688 617.75 C 691.019531 633.574219 683.035156 648.699219 667.773438 659.273438 L 494.058594 793.316406 C 492.53125 794.496094 490.675781 795.113281 488.789062 795.113281 Z M 488.789062 795.113281 " fill-opacity="1" fill-rule="evenodd"/><g clip-path="url(#67d81bbe3b)"><path fill="#e34a2f" d="M 252.152344 824.242188 C 249.171875 824.242188 246.269531 822.695312 244.671875 819.921875 L 146.839844 650.441406 C 145.691406 648.457031 145.382812 646.101562 145.976562 643.886719 C 146.570312 641.679688 148.015625 639.792969 150 638.648438 L 214.679688 601.296875 C 218.804688 598.910156 224.085938 600.332031 226.46875 604.457031 L 324.300781 773.941406 C 325.449219 775.921875 325.757812 778.28125 325.164062 780.492188 C 324.570312 782.703125 323.125 784.589844 321.140625 785.730469 L 256.460938 823.082031 C 255.105469 823.871094 253.617188 824.242188 252.152344 824.242188 Z M 197.863281 672.910156 C 194.800781 672.910156 191.832031 671.277344 190.269531 668.394531 C 187.996094 664.203125 189.550781 658.960938 193.742188 656.6875 L 208.414062 648.726562 C 212.601562 646.453125 217.84375 648.007812 220.117188 652.199219 C 222.390625 656.390625 220.835938 661.632812 216.644531 663.902344 L 201.972656 671.863281 C 200.664062 672.574219 199.253906 672.910156 197.863281 672.910156 Z M 197.863281 672.910156 " fill-opacity="1" fill-rule="evenodd"/></g><path fill="#e34a2f" d="M 535.152344 384.402344 C 488.792969 384.402344 363.492188 348.339844 323.800781 321.878906 C 318.078125 318.066406 313.90625 313.558594 311.046875 308.722656 L 216.242188 376.402344 C 206.253906 383.53125 195.617188 387.183594 185.472656 387.183594 C 179.632812 387.183594 173.957031 385.976562 168.65625 383.523438 C 155.777344 377.566406 147.027344 365.015625 145.824219 350.769531 C 144.484375 334.941406 152.464844 319.820312 167.730469 309.242188 L 341.4375 175.199219 C 343.539062 173.578125 346.273438 173.011719 348.84375 173.667969 L 501.683594 212.621094 L 585.210938 357.324219 C 551.234375 382.226562 548.214844 382.910156 545.71875 383.472656 C 542.929688 384.101562 539.363281 384.402344 535.152344 384.402344 Z M 535.152344 384.402344 " fill-opacity="1" fill-rule="evenodd"/><path fill="#e34a2f" d="M 616.511719 368.375 C 613.527344 368.375 610.628906 366.828125 609.03125 364.058594 L 511.199219 194.574219 C 508.816406 190.445312 510.230469 185.164062 514.355469 182.78125 L 579.039062 145.429688 C 581.019531 144.285156 583.378906 143.972656 585.589844 144.566406 C 587.800781 145.160156 589.6875 146.609375 590.828125 148.59375 L 688.664062 318.078125 C 689.808594 320.058594 690.121094 322.414062 689.527344 324.628906 C 688.933594 326.839844 687.488281 328.722656 685.503906 329.871094 L 620.820312 367.21875 C 619.460938 368 617.976562 368.375 616.511719 368.375 Z M 622.976562 320.835938 C 619.914062 320.835938 616.949219 319.203125 615.382812 316.316406 C 613.109375 312.128906 614.667969 306.886719 618.855469 304.613281 L 633.53125 296.652344 C 637.722656 294.375 642.960938 295.929688 645.234375 300.121094 C 647.503906 304.3125 645.949219 309.554688 641.761719 311.828125 L 627.085938 319.789062 C 625.777344 320.5 624.367188 320.835938 622.976562 320.835938 Z M 622.976562 320.835938 " fill-opacity="1" fill-rule="evenodd"/></svg>